<svg width="46" height="62" viewBox="0 0 46 62" fill="none" xmlns="http://www.w3.org/2000/svg">
<path d="M31.3281 6.21094C31.8359 5.80469 32.4453 5.5 33.0547 5.5C34.7812 5.5 36 7.32812 35.3906 8.95312L28.4844 28.25H39.7578C41.1797 28.25 42.5 29.5703 42.5 30.9922C42.5 31.8047 42.0938 32.6172 41.4844 33.125L14.5703 56.8906C14.0625 57.2969 13.4531 57.5 12.8438 57.5C11.1172 57.5 9.89844 55.7734 10.5078 54.1484L17.4141 34.75H6.03906C4.61719 34.75 3.5 33.6328 3.5 32.2109C3.5 31.3984 3.80469 30.6875 4.3125 30.1797L31.3281 6.21094ZM31.4297 10.4766L7.76562 31.5H19.75C20.2578 31.5 20.7656 31.8047 21.0703 32.2109C21.375 32.7188 21.375 33.2266 21.2734 33.7344L14.4688 52.625L38.3359 31.5H26.25C25.6406 31.5 25.1328 31.2969 24.8281 30.8906C24.5234 30.3828 24.5234 29.875 24.625 29.3672L31.4297 10.4766Z" fill="#5F7482"/>
</svg>
