<svg width="52" height="62" viewBox="0 0 52 62" fill="none" xmlns="http://www.w3.org/2000/svg">
<path d="M16.25 10.375V15.25H35.75V10.375C35.75 9.5625 34.9375 8.75 34.125 8.75H17.875C16.9609 8.75 16.25 9.5625 16.25 10.375ZM13 15.25V10.375C13 7.73438 15.1328 5.5 17.875 5.5H34.125C36.7656 5.5 39 7.73438 39 10.375V15.25H45.5C49.0547 15.25 52 18.1953 52 21.75V47.75C52 51.4062 49.0547 54.25 45.5 54.25H6.5C2.84375 54.25 0 51.4062 0 47.75V21.75C0 18.1953 2.84375 15.25 6.5 15.25H13ZM37.375 18.5H14.625H6.5C4.67188 18.5 3.25 20.0234 3.25 21.75V31.5H17.875H21.125H30.875H34.125H48.75V21.75C48.75 20.0234 47.2266 18.5 45.5 18.5H37.375ZM48.75 34.75H34.125V39.625C34.125 41.4531 32.6016 42.875 30.875 42.875H21.125C19.2969 42.875 17.875 41.4531 17.875 39.625V34.75H3.25V47.75C3.25 49.5781 4.67188 51 6.5 51H45.5C47.2266 51 48.75 49.5781 48.75 47.75V34.75ZM21.125 34.75V39.625H30.875V34.75H21.125Z" fill="#5F7482"/>
</svg>
