<svg width="39" height="62" viewBox="0 0 39 62" fill="none" xmlns="http://www.w3.org/2000/svg">
<path d="M6.5 8.75C4.67188 8.75 3.25 10.2734 3.25 12V51C3.25 52.8281 4.67188 54.25 6.5 54.25H13V47.75C13 44.1953 15.8438 41.25 19.5 41.25C23.0547 41.25 26 44.1953 26 47.75V54.25H32.5C34.2266 54.25 35.75 52.8281 35.75 51V12C35.75 10.2734 34.2266 8.75 32.5 8.75H6.5ZM22.75 47.75C22.75 46.0234 21.2266 44.5 19.5 44.5C17.6719 44.5 16.25 46.0234 16.25 47.75V54.25H22.75V47.75ZM13 57.5H6.5C2.84375 57.5 0 54.6562 0 51V12C0 8.44531 2.84375 5.5 6.5 5.5H32.5C36.0547 5.5 39 8.44531 39 12V51C39 54.6562 36.0547 57.5 32.5 57.5H26H22.75H16.25H13ZM6.5 17.6875C6.5 16.3672 7.51562 15.25 8.9375 15.25H13.8125C15.1328 15.25 16.25 16.3672 16.25 17.6875V22.5625C16.25 23.9844 15.1328 25 13.8125 25H8.9375C7.51562 25 6.5 23.9844 6.5 22.5625V17.6875ZM9.75 18.5V21.75H13V18.5H9.75ZM25.1875 15.25H30.0625C31.3828 15.25 32.5 16.3672 32.5 17.6875V22.5625C32.5 23.9844 31.3828 25 30.0625 25H25.1875C23.7656 25 22.75 23.9844 22.75 22.5625V17.6875C22.75 16.3672 23.7656 15.25 25.1875 15.25ZM26 21.75H29.25V18.5H26V21.75ZM6.5 30.6875C6.5 29.3672 7.51562 28.25 8.9375 28.25H13.8125C15.1328 28.25 16.25 29.3672 16.25 30.6875V35.5625C16.25 36.9844 15.1328 38 13.8125 38H8.9375C7.51562 38 6.5 36.9844 6.5 35.5625V30.6875ZM9.75 31.5V34.75H13V31.5H9.75ZM25.1875 28.25H30.0625C31.3828 28.25 32.5 29.3672 32.5 30.6875V35.5625C32.5 36.9844 31.3828 38 30.0625 38H25.1875C23.7656 38 22.75 36.9844 22.75 35.5625V30.6875C22.75 29.3672 23.7656 28.25 25.1875 28.25ZM26 34.75H29.25V31.5H26V34.75Z" fill="#5F7482"/>
</svg>
