<svg width="39" height="62" viewBox="0 0 39 62" fill="none" xmlns="http://www.w3.org/2000/svg">
<path d="M31.4844 31.8047C33.1094 29.3672 34.125 26.5234 34.125 23.375C34.125 15.3516 27.5234 8.75 19.5 8.75C11.375 8.75 4.875 15.3516 4.875 23.375C4.875 26.5234 5.78906 29.3672 7.41406 31.8047C7.82031 32.3125 8.32812 33.0234 8.83594 33.7344C10.1562 35.4609 11.5781 37.4922 12.6953 39.5234C13.6094 41.1484 14.1172 42.875 14.3203 44.6016H11.0703C10.7656 43.3828 10.4609 42.1641 9.85156 41.0469C8.83594 39.2188 7.61719 37.4922 6.29688 35.7656C5.78906 35.0547 5.28125 34.3438 4.77344 33.6328C2.74219 30.6875 1.625 27.2344 1.625 23.375C1.625 13.5234 9.54688 5.5 19.5 5.5C29.3516 5.5 37.375 13.5234 37.375 23.375C37.375 27.2344 36.1562 30.6875 34.125 33.6328C33.6172 34.3438 33.1094 35.0547 32.6016 35.7656C31.2812 37.4922 30.0625 39.2188 29.0469 41.0469C28.4375 42.1641 28.1328 43.2812 27.8281 44.5H24.5781C24.8828 42.875 25.2891 41.1484 26.2031 39.5234C27.3203 37.4922 28.8438 35.4609 30.0625 33.6328C30.5703 33.0234 31.0781 32.3125 31.4844 31.7031V31.8047ZM19.5 15.25C14.9297 15.25 11.375 18.9062 11.375 23.375C11.375 24.2891 10.5625 25 9.75 25C8.83594 25 8.125 24.2891 8.125 23.375C8.125 17.1797 13.2031 12 19.5 12C20.3125 12 21.125 12.8125 21.125 13.625C21.125 14.5391 20.3125 15.25 19.5 15.25ZM14.8281 51C15.5391 52.9297 17.3672 54.25 19.5 54.25C21.5312 54.25 23.3594 52.9297 24.0703 51H14.8281ZM11.375 49.375V48.8672C11.375 48.2578 11.7812 47.75 12.3906 47.75H26.5078C27.1172 47.75 27.625 48.2578 27.625 48.8672V49.375C27.625 53.9453 23.9688 57.5 19.5 57.5C14.9297 57.5 11.375 53.9453 11.375 49.375Z" fill="#5F7482"/>
</svg>
