<svg width="59" height="62" viewBox="0 0 59 62" fill="none" xmlns="http://www.w3.org/2000/svg">
<path d="M1.875 5.5H5.63281C7.76562 5.5 9.59375 6.82031 10.3047 8.75H54.9922C57.125 8.75 58.6484 10.7812 58.1406 12.8125L53.875 29.875C53.1641 32.7188 50.5234 34.75 47.5781 34.75H15.6875L16.3984 38.7109C16.7031 40.2344 18.125 41.25 19.6484 41.25H50.625C51.4375 41.25 52.25 42.0625 52.25 42.875C52.25 43.7891 51.4375 44.5 50.625 44.5H19.6484C16.5 44.5 13.8594 42.3672 13.25 39.3203L7.25781 10.0703C7.15625 9.35938 6.44531 8.75 5.63281 8.75H1.875C0.960938 8.75 0.25 8.03906 0.25 7.125C0.25 6.3125 0.960938 5.5 1.875 5.5ZM11.0156 12L14.9766 31.5H47.5781C49.1016 31.5 50.4219 30.4844 50.7266 29.0625L54.9922 12H11.0156ZM17.3125 51.8125C17.3125 53.2344 18.3281 54.25 19.75 54.25C21.0703 54.25 22.1875 53.2344 22.1875 51.8125C22.1875 50.4922 21.0703 49.375 19.75 49.375C18.3281 49.375 17.3125 50.4922 17.3125 51.8125ZM25.4375 51.8125C25.4375 53.9453 24.3203 55.7734 22.5938 56.7891C20.7656 57.8047 18.6328 57.8047 16.9062 56.7891C15.0781 55.7734 14.0625 53.9453 14.0625 51.8125C14.0625 49.7812 15.0781 47.9531 16.9062 46.9375C18.6328 45.9219 20.7656 45.9219 22.5938 46.9375C24.3203 47.9531 25.4375 49.7812 25.4375 51.8125ZM45.75 49.375C44.3281 49.375 43.3125 50.4922 43.3125 51.8125C43.3125 53.2344 44.3281 54.25 45.75 54.25C47.0703 54.25 48.1875 53.2344 48.1875 51.8125C48.1875 50.4922 47.0703 49.375 45.75 49.375ZM45.75 57.5C43.6172 57.5 41.7891 56.4844 40.7734 54.6562C39.7578 52.9297 39.7578 50.7969 40.7734 48.9688C41.7891 47.2422 43.6172 46.125 45.75 46.125C47.7812 46.125 49.6094 47.2422 50.625 48.9688C51.6406 50.7969 51.6406 52.9297 50.625 54.6562C49.6094 56.4844 47.7812 57.5 45.75 57.5Z" fill="#5F7482"/>
</svg>
