<svg width="65" height="62" viewBox="0 0 65 62" fill="none" xmlns="http://www.w3.org/2000/svg">
<path d="M43.5703 19.3125C42.1484 20.0234 40.4219 19.5156 39.5078 18.2969C36.8672 14.5391 32.5 12 27.625 12C19.7031 12 13.3047 18.1953 13 26.0156C12.8984 27.3359 12.0859 28.4531 10.7656 28.9609C6.39844 30.4844 3.25 34.75 3.25 39.625C3.25 45.9219 8.32812 51 14.625 51H52C57.3828 51 61.75 46.6328 61.75 41.25C61.75 37.5938 59.6172 34.3438 56.4688 32.7188C55.1484 31.9062 54.4375 30.3828 54.9453 28.8594C55.0469 28.1484 55.25 27.4375 55.25 26.625C55.25 22.1562 51.5938 18.5 47.125 18.5C45.8047 18.5 44.6875 18.8047 43.5703 19.3125ZM42.25 16.3672C43.6719 15.6562 45.2969 15.25 47.125 15.25C53.3203 15.25 58.5 20.4297 58.5 26.625C58.5 27.7422 58.2969 28.7578 57.9922 29.7734C62.1562 32.0078 65 36.2734 65 41.25C65 48.4609 59.1094 54.25 52 54.25H14.625C6.5 54.25 0 47.75 0 39.625C0 33.3281 4.0625 27.8438 9.75 25.9141C10.1562 16.3672 17.9766 8.75 27.625 8.75C33.6172 8.75 39 11.7969 42.25 16.3672Z" fill="#5F7482"/>
</svg>
