<svg width="52" height="62" viewBox="0 0 52 62" fill="none" xmlns="http://www.w3.org/2000/svg">
<path d="M22.6484 9.35938L21.2266 14.2344C20.9219 15.4531 20.0078 16.3672 18.9922 16.875C18.1797 17.2812 17.4688 17.6875 16.7578 18.0938C15.8438 18.8047 14.5234 19.1094 13.3047 18.8047L8.42969 17.5859C8.22656 17.5859 8.125 17.5859 8.02344 17.5859C7.41406 18.2969 6.90625 19.0078 6.5 19.8203L5.99219 20.5312C5.58594 21.3438 5.17969 22.1562 4.875 22.9688C4.875 23.0703 4.97656 23.2734 5.07812 23.375L8.63281 26.9297C9.44531 27.8438 9.85156 29.1641 9.75 30.2812C9.75 30.6875 9.75 31.0938 9.75 31.5C9.75 32.0078 9.75 32.4141 9.75 32.8203C9.85156 33.9375 9.44531 35.1562 8.63281 36.0703L5.07812 39.7266C4.97656 39.8281 4.875 40.0312 4.875 40.1328C5.17969 40.9453 5.58594 41.7578 5.99219 42.5703L6.39844 43.2812C6.90625 43.9922 7.41406 44.8047 7.92188 45.5156C8.125 45.5156 8.22656 45.5156 8.42969 45.5156L13.3047 44.2969C14.5234 43.9922 15.8438 44.2969 16.7578 44.9062C17.4688 45.4141 18.1797 45.8203 18.9922 46.2266C20.0078 46.7344 20.9219 47.6484 21.2266 48.8672L22.6484 53.7422C22.6484 53.8438 22.75 53.9453 22.8516 54.0469C23.8672 54.25 24.8828 54.25 26 54.25C27.0156 54.25 28.0312 54.25 29.0469 54.0469C29.1484 53.9453 29.25 53.8438 29.25 53.7422L30.6719 48.8672C30.9766 47.6484 31.8906 46.7344 32.9062 46.2266C33.7188 45.8203 34.4297 45.4141 35.1406 44.9062C36.1562 44.2969 37.375 43.9922 38.5938 44.2969L43.4688 45.5156C43.6719 45.5156 43.7734 45.5156 43.9766 45.5156C44.4844 44.8047 44.9922 43.9922 45.5 43.2812L45.9062 42.5703C46.3125 41.7578 46.7188 40.9453 47.0234 40.1328C47.0234 40.0312 46.9219 39.8281 46.8203 39.7266L43.2656 36.0703C42.4531 35.1562 42.0469 33.9375 42.1484 32.8203C42.1484 32.4141 42.25 32.0078 42.25 31.5C42.25 31.0938 42.1484 30.6875 42.1484 30.2812C42.0469 29.1641 42.4531 27.8438 43.2656 26.9297L46.8203 23.375C46.9219 23.2734 47.0234 23.0703 47.0234 22.9688C46.7188 22.1562 46.3125 21.3438 45.9062 20.5312L45.5 19.8203C44.9922 19.0078 44.4844 18.2969 43.9766 17.5859C43.7734 17.5859 43.6719 17.5859 43.4688 17.5859L38.5938 18.8047C37.375 19.1094 36.1562 18.8047 35.1406 18.1953C34.4297 17.6875 33.7188 17.2812 32.9062 16.875C31.8906 16.3672 30.9766 15.4531 30.6719 14.2344L29.25 9.35938C29.25 9.25781 29.1484 9.05469 29.0469 8.95312C28.0312 8.85156 27.0156 8.75 26 8.75C24.8828 8.75 23.8672 8.85156 22.8516 8.95312C22.75 9.05469 22.6484 9.25781 22.6484 9.35938ZM26 5.5C27.3203 5.5 28.5391 5.60156 29.8594 5.80469C30.0625 5.90625 30.1641 5.90625 30.3672 6.00781C31.2812 6.51562 32.0938 7.42969 32.3984 8.44531L33.8203 13.3203C33.8203 13.5234 34.0234 13.8281 34.3281 13.9297C35.2422 14.3359 36.1562 14.8438 36.9688 15.4531C37.2734 15.6562 37.5781 15.7578 37.7812 15.6562L42.7578 14.4375C43.7734 14.1328 44.9922 14.3359 45.9062 14.9453C46.0078 15.0469 46.1094 15.1484 46.3125 15.3516C47.0234 16.1641 47.6328 17.1797 48.2422 18.1953L48.75 18.9062V19.0078C49.2578 20.0234 49.7656 21.0391 50.1719 22.0547C50.2734 22.2578 50.2734 22.3594 50.2734 22.5625C50.375 23.6797 49.9688 24.7969 49.1562 25.6094L45.6016 29.2656C45.5 29.3672 45.3984 29.6719 45.3984 29.9766C45.3984 30.4844 45.5 30.9922 45.5 31.5C45.5 32.0078 45.3984 32.5156 45.3984 33.0234C45.3984 33.4297 45.5 33.7344 45.6016 33.8359L49.1562 37.4922C49.9688 38.3047 50.375 39.4219 50.2734 40.5391C50.2734 40.6406 50.2734 40.8438 50.1719 41.0469C49.7656 42.0625 49.2578 43.0781 48.75 44.0938L48.2422 44.9062C47.6328 45.9219 47.0234 46.8359 46.2109 47.75C46.1094 47.9531 46.0078 48.0547 45.9062 48.1562C44.9922 48.7656 43.7734 48.9688 42.6562 48.6641L37.7812 47.4453C37.5781 47.3438 37.2734 47.4453 36.9688 47.6484C36.1562 48.1562 35.2422 48.6641 34.3281 49.1719C34.0234 49.2734 33.8203 49.5781 33.8203 49.7812L32.3984 54.5547C32.0938 55.6719 31.2812 56.5859 30.3672 57.0938C30.1641 57.1953 30.0625 57.1953 29.8594 57.2969C28.5391 57.3984 27.3203 57.5 26 57.5C24.6797 57.5 23.3594 57.3984 22.0391 57.2969C21.8359 57.1953 21.7344 57.1953 21.5312 57.0938C20.6172 56.5859 19.8047 55.6719 19.5 54.5547L18.0781 49.7812C18.0781 49.5781 17.875 49.2734 17.5703 49.1719C16.6562 48.7656 15.7422 48.2578 14.9297 47.6484C14.625 47.4453 14.3203 47.4453 14.1172 47.4453L9.24219 48.6641C8.125 48.9688 7.00781 48.7656 6.09375 48.1562C5.89062 48.0547 5.78906 47.9531 5.6875 47.8516C4.875 46.9375 4.26562 45.9219 3.65625 44.9062L3.25 44.1953L3.14844 44.0938C2.64062 43.0781 2.13281 42.0625 1.72656 41.0469C1.72656 40.8438 1.625 40.7422 1.625 40.5391C1.625 39.4219 1.92969 38.3047 2.74219 37.4922L6.29688 33.8359C6.39844 33.7344 6.5 33.4297 6.5 33.0234C6.5 32.6172 6.5 32.0078 6.5 31.5C6.5 30.9922 6.5 30.4844 6.5 29.9766C6.5 29.6719 6.39844 29.3672 6.29688 29.2656L2.74219 25.6094C1.92969 24.7969 1.625 23.6797 1.625 22.5625C1.625 22.3594 1.72656 22.2578 1.72656 22.0547C2.13281 21.0391 2.64062 20.0234 3.14844 19.0078L3.25 18.9062L3.65625 18.1953C4.26562 17.1797 4.97656 16.1641 5.6875 15.3516C5.78906 15.1484 5.89062 15.0469 6.09375 14.9453C7.00781 14.3359 8.125 14.1328 9.24219 14.4375L14.1172 15.6562C14.3203 15.7578 14.625 15.6562 14.9297 15.4531C15.7422 14.9453 16.6562 14.3359 17.5703 13.9297C17.875 13.8281 18.0781 13.5234 18.0781 13.3203L19.5 8.44531C19.8047 7.42969 20.6172 6.51562 21.5312 6.00781C21.7344 5.90625 21.8359 5.90625 22.0391 5.80469C23.3594 5.60156 24.6797 5.5 26 5.5ZM20.3125 31.5C20.3125 33.6328 21.3281 35.4609 23.1562 36.4766C24.8828 37.4922 27.0156 37.4922 28.8438 36.4766C30.5703 35.4609 31.6875 33.6328 31.6875 31.5C31.6875 29.4688 30.5703 27.6406 28.8438 26.625C27.0156 25.6094 24.8828 25.6094 23.1562 26.625C21.3281 27.6406 20.3125 29.4688 20.3125 31.5ZM34.9375 31.5C34.9375 34.75 33.2109 37.6953 30.4688 39.3203C27.625 40.8438 24.2734 40.8438 21.5312 39.3203C18.6875 37.6953 17.0625 34.75 17.0625 31.5C17.0625 28.3516 18.6875 25.4062 21.5312 23.7812C24.2734 22.2578 27.625 22.2578 30.4688 23.7812C33.2109 25.4062 34.9375 28.3516 34.9375 31.5Z" fill="#5F7482"/>
</svg>
