<svg width="78" height="78" viewBox="0 0 78 78" fill="none" xmlns="http://www.w3.org/2000/svg">
<path d="M55.5579 36.6527C55.5579 47.5198 47.9575 56.3294 38.5819 56.3294C29.2063 56.3294 21.6058 47.5198 21.6058 36.6527C21.6058 25.7855 29.2063 16.976 38.5819 16.976C47.9575 16.976 55.5579 25.7855 55.5579 36.6527Z" fill="white"/>
<path d="M43.7814 46.1173C44.5528 45.7277 45.5266 46.2688 45.5266 47.124C45.5266 47.4917 45.3378 47.8334 45.0164 48.0192C43.8384 48.7004 40.8554 50.2844 38.5819 50.2844C36.3083 50.2844 33.3253 48.7004 32.1473 48.0192C31.8259 47.8334 31.6371 47.4917 31.6371 47.124C31.6371 46.2688 32.6109 45.7277 33.3824 46.1173C34.8231 46.8448 36.8973 47.7141 38.5819 47.7141C40.2664 47.7141 42.3406 46.8448 43.7814 46.1173Z" fill="#D4622B"/>
<path d="M32.0229 34.7244C33.5145 34.7244 34.7237 36.1062 34.7237 37.8109C34.7237 39.5156 33.5145 40.8974 32.0229 40.8974C30.5314 40.8974 29.3222 39.5156 29.3222 37.8109C29.3222 36.1062 30.5314 34.7244 32.0229 34.7244Z" fill="#D4622B"/>
<path d="M45.1408 34.7244C46.6324 34.7244 47.8415 36.1062 47.8415 37.8109C47.8415 39.5156 46.6324 40.8974 45.1408 40.8974C43.6492 40.8974 42.4401 39.5156 42.4401 37.8109C42.4401 36.1062 43.6492 34.7244 45.1408 34.7244Z" fill="#D4622B"/>
<path fill-rule="evenodd" clip-rule="evenodd" d="M38.5819 0C46.2849 0 47.1569 14.7481 54.7862 22.3774C62.4156 30.0068 77.1637 30.8787 77.1637 38.5818C77.1637 46.2848 62.4156 47.1567 54.7862 54.7861C47.1569 62.4155 46.2849 77.1636 38.5819 77.1636C30.8788 77.1636 30.0069 62.4155 22.3775 54.7861C14.7481 47.1567 0 46.2848 0 38.5818C0 30.8787 14.7481 30.0068 22.3775 22.3774C30.0069 14.7481 30.8788 0 38.5819 0ZM42.6345 18.0581C38.3995 25.6945 30.8564 31.2403 21.9389 32.7606C21.721 34.019 21.6058 35.3199 21.6058 36.6527C21.6058 47.5198 29.2063 56.3294 38.5819 56.3294C47.9575 56.3294 55.5579 47.5198 55.5579 36.6527C55.5579 34.9426 55.369 33.2845 55.0153 31.7026C49.5608 28.6124 45.1946 23.8255 42.6345 18.0581Z" fill="#D4622B"/>
</svg>
