<svg width="59" height="62" viewBox="0 0 59 62" fill="none" xmlns="http://www.w3.org/2000/svg">
<path d="M30.5156 5.90625L58.1406 30.2812C58.8516 30.8906 58.8516 31.9062 58.3438 32.6172C57.7344 33.3281 56.7188 33.3281 56.0078 32.7188L52.25 29.3672V49.375C52.25 53.9453 48.5938 57.5 44.125 57.5H14.875C10.3047 57.5 6.75 53.9453 6.75 49.375V29.3672L2.89062 32.7188C2.28125 33.3281 1.16406 33.3281 0.65625 32.6172C0.046875 31.9062 0.046875 30.8906 0.757812 30.2812L28.3828 5.90625C28.9922 5.39844 29.9062 5.39844 30.5156 5.90625ZM10 49.375C10 52.1172 12.1328 54.25 14.875 54.25H21.375V38C21.375 36.2734 22.7969 34.75 24.625 34.75H34.375C36.1016 34.75 37.625 36.2734 37.625 38V54.25H44.125C46.7656 54.25 49 52.1172 49 49.375V26.5234L29.5 9.35938L10 26.5234V49.375ZM24.625 54.25H34.375V38H24.625V54.25Z" fill="#5F7482"/>
</svg>
