<svg width="198" height="78" viewBox="0 0 198 78" fill="none" xmlns="http://www.w3.org/2000/svg">
<path d="M106.236 57.8727C103.468 57.8727 100.896 57.3767 98.5185 56.3847C96.1766 55.3927 94.1186 54.011 92.3444 52.2395C90.6058 50.4681 89.2397 48.4309 88.2461 46.1281C87.2881 43.7898 86.8091 41.2921 86.8091 38.6349C86.8091 35.9778 87.2704 33.4801 88.1929 31.1418C89.151 28.8035 90.4816 26.7486 92.1848 24.9772C93.9234 23.2058 95.9815 21.824 98.3588 20.832C100.736 19.8046 103.362 19.2909 106.236 19.2909C109.288 19.2909 111.896 19.7692 114.06 20.7258C116.26 21.6823 118.194 23.1526 119.862 25.1366L114.592 29.7069C112.357 27.3686 109.571 26.1995 106.236 26.1995C103.859 26.1995 101.783 26.7663 100.009 27.9001C98.2701 29.0338 96.9218 30.5395 95.9637 32.4172C95.0057 34.2949 94.5267 36.3675 94.5267 38.6349C94.5267 40.9024 95.0057 42.9749 95.9637 44.8527C96.9218 46.6949 98.2879 48.1829 100.062 49.3167C101.836 50.4149 103.947 50.9641 106.396 50.9641C108.205 50.9641 109.802 50.6629 111.186 50.0607C112.57 49.4584 113.812 48.5549 114.912 47.3504L120.341 51.9738C118.921 53.6744 117.023 55.0915 114.646 56.2252C112.304 57.3235 109.501 57.8727 106.236 57.8727Z" fill="#0C0522"/>
<path d="M134.967 57.8727C132.129 57.8727 129.592 57.2172 127.356 55.9064C125.121 54.5955 123.364 52.8595 122.087 50.6984C120.845 48.5018 120.224 46.0749 120.224 43.4178C120.224 40.7606 120.845 38.3338 122.087 36.1372C123.364 33.9406 125.121 32.1869 127.356 30.8761C129.592 29.5652 132.129 28.9098 134.967 28.9098C137.842 28.9098 140.379 29.5652 142.578 30.8761C144.814 32.1869 146.553 33.9406 147.795 36.1372C149.072 38.3338 149.711 40.7606 149.711 43.4178C149.711 46.0749 149.072 48.5018 147.795 50.6984C146.553 52.8595 144.814 54.5955 142.578 55.9064C140.379 57.2172 137.842 57.8727 134.967 57.8727ZM134.967 51.3361C136.493 51.3361 137.824 50.9818 138.959 50.2732C140.095 49.5292 140.964 48.5549 141.567 47.3504C142.206 46.1458 142.525 44.8349 142.525 43.4178C142.525 41.9652 142.206 40.6366 141.567 39.4321C140.964 38.2275 140.095 37.2709 138.959 36.5624C137.824 35.8184 136.493 35.4464 134.967 35.4464C133.442 35.4464 132.111 35.8184 130.976 36.5624C129.84 37.2709 128.953 38.2275 128.314 39.4321C127.711 40.6366 127.409 41.9652 127.409 43.4178C127.409 44.8349 127.711 46.1458 128.314 47.3504C128.953 48.5549 129.84 49.5292 130.976 50.2732C132.111 50.9818 133.442 51.3361 134.967 51.3361Z" fill="#0C0522"/>
<path d="M152.891 57.1818V29.5475H159.863V34.8086C160.324 32.8246 161.265 31.3189 162.684 30.2915C164.103 29.2286 166.02 28.7681 168.432 28.9098V35.6589H167.421C165.363 35.6589 163.624 36.3144 162.205 37.6252C160.786 38.9361 160.076 40.7429 160.076 43.0458V57.1818H152.891Z" fill="#0C0522"/>
<path d="M182.086 57.8727C179.566 57.8727 177.26 57.235 175.167 55.9595C173.108 54.6487 171.459 52.9127 170.217 50.7515C169.01 48.5549 168.407 46.1281 168.407 43.4709C168.407 41.4869 168.762 39.6269 169.471 37.8909C170.181 36.1195 171.157 34.5783 172.399 33.2675C173.641 31.9212 175.078 30.8761 176.71 30.1321C178.378 29.3526 180.17 28.9629 182.086 28.9629C184.499 28.9629 186.379 29.4235 187.728 30.3446C189.076 31.2303 190.123 32.4172 190.868 33.9052V29.5475H198V57.1818H191.027V52.6647C190.282 54.2235 189.218 55.4812 187.834 56.4378C186.486 57.3944 184.57 57.8727 182.086 57.8727ZM183.257 51.3892C184.853 51.3892 186.219 51.0349 187.355 50.3264C188.526 49.5824 189.431 48.6081 190.069 47.4035C190.708 46.1989 191.027 44.8881 191.027 43.4709C191.027 42.0184 190.708 40.6898 190.069 39.4852C189.431 38.2806 188.526 37.3064 187.355 36.5624C186.219 35.8184 184.853 35.4464 183.257 35.4464C181.731 35.4464 180.383 35.8184 179.212 36.5624C178.076 37.2709 177.189 38.2275 176.55 39.4321C175.912 40.6366 175.592 41.9652 175.592 43.4178C175.592 44.7995 175.912 46.1104 176.55 47.3504C177.189 48.5549 178.076 49.5292 179.212 50.2732C180.383 51.0172 181.731 51.3892 183.257 51.3892Z" fill="#0C0522"/>
<path d="M55.5579 36.6527C55.5579 47.5198 47.9575 56.3294 38.5819 56.3294C29.2063 56.3294 21.6058 47.5198 21.6058 36.6527C21.6058 25.7855 29.2063 16.976 38.5819 16.976C47.9575 16.976 55.5579 25.7855 55.5579 36.6527Z" fill="white"/>
<path d="M43.7814 46.1173C44.5528 45.7277 45.5266 46.2688 45.5266 47.124C45.5266 47.4917 45.3378 47.8334 45.0164 48.0192C43.8384 48.7004 40.8554 50.2844 38.5819 50.2844C36.3083 50.2844 33.3253 48.7004 32.1473 48.0192C31.8259 47.8334 31.6371 47.4917 31.6371 47.124C31.6371 46.2688 32.6109 45.7277 33.3824 46.1173C34.8231 46.8448 36.8973 47.7141 38.5819 47.7141C40.2664 47.7141 42.3406 46.8448 43.7814 46.1173Z" fill="#D4622B"/>
<path d="M32.0229 34.7244C33.5145 34.7244 34.7237 36.1062 34.7237 37.8109C34.7237 39.5156 33.5145 40.8974 32.0229 40.8974C30.5314 40.8974 29.3222 39.5156 29.3222 37.8109C29.3222 36.1062 30.5314 34.7244 32.0229 34.7244Z" fill="#D4622B"/>
<path d="M45.1408 34.7244C46.6324 34.7244 47.8415 36.1062 47.8415 37.8109C47.8415 39.5156 46.6324 40.8974 45.1408 40.8974C43.6492 40.8974 42.4401 39.5156 42.4401 37.8109C42.4401 36.1062 43.6492 34.7244 45.1408 34.7244Z" fill="#D4622B"/>
<path fill-rule="evenodd" clip-rule="evenodd" d="M38.5819 0C46.2849 0 47.1569 14.7481 54.7862 22.3774C62.4156 30.0068 77.1637 30.8787 77.1637 38.5818C77.1637 46.2848 62.4156 47.1567 54.7862 54.7861C47.1569 62.4155 46.2849 77.1636 38.5819 77.1636C30.8788 77.1636 30.0069 62.4155 22.3775 54.7861C14.7481 47.1567 0 46.2848 0 38.5818C0 30.8787 14.7481 30.0068 22.3775 22.3774C30.0069 14.7481 30.8788 0 38.5819 0ZM42.6345 18.0581C38.3995 25.6945 30.8564 31.2403 21.9389 32.7606C21.721 34.019 21.6058 35.3199 21.6058 36.6527C21.6058 47.5198 29.2063 56.3294 38.5819 56.3294C47.9575 56.3294 55.5579 47.5198 55.5579 36.6527C55.5579 34.9426 55.369 33.2845 55.0153 31.7026C49.5608 28.6124 45.1946 23.8255 42.6345 18.0581Z" fill="#D4622B"/>
</svg>
