<svg width="52" height="62" viewBox="0 0 52 62" fill="none" xmlns="http://www.w3.org/2000/svg">
<path d="M43.2656 36.1719C43.4688 35.3594 44.0781 34.75 44.8906 34.75C45.9062 34.75 46.7188 35.6641 46.4141 36.6797C44.1797 45.8203 35.8516 52.625 26 52.625C19.9062 52.625 14.4219 50.0859 10.5625 46.0234L7.92188 48.5625C7.41406 49.1719 6.70312 49.375 5.99219 49.375C4.46875 49.375 3.25 48.1562 3.25 46.6328V36.4766C3.25 35.5625 3.96094 34.8516 4.875 34.8516H15.0312C16.5547 34.8516 17.875 36.0703 17.875 37.5938C17.875 38.3047 17.5703 39.0156 17.0625 39.5234L12.8984 43.6875C16.1484 47.2422 20.8203 49.375 26 49.375C34.2266 49.375 41.2344 43.7891 43.2656 36.1719ZM39.1016 19.4141C35.75 15.8594 31.1797 13.625 26 13.625C17.6719 13.625 10.6641 19.3125 8.63281 26.9297C8.42969 27.7422 7.82031 28.25 7.00781 28.25C5.99219 28.25 5.17969 27.4375 5.48438 26.4219C7.71875 17.1797 16.0469 10.375 26 10.375C31.9922 10.375 37.4766 13.0156 41.3359 17.0781L43.9766 14.4375C44.4844 13.9297 45.1953 13.625 45.9062 13.625C47.4297 13.625 48.75 14.9453 48.75 16.4688V26.625C48.75 27.5391 47.9375 28.25 47.125 28.25H36.8672C35.3438 28.25 34.125 27.0312 34.125 25.5078C34.125 24.7969 34.3281 24.0859 34.9375 23.5781L39.1016 19.4141ZM45.5 25V17.5859L37.9844 25H45.5ZM6.5 38V45.5156L13.9141 38H6.5Z" fill="#5F7482"/>
</svg>
