<svg width="52" height="62" viewBox="0 0 52 62" fill="none" xmlns="http://www.w3.org/2000/svg">
<path d="M24.6797 9.35938L6.70312 16.9766C5.58594 17.3828 4.77344 18.5 4.875 19.7188C4.875 29.2656 8.83594 46.125 24.6797 53.7422C25.4922 54.1484 26.4062 54.1484 27.2188 53.7422C43.0625 46.125 47.0234 29.2656 47.125 19.7188C47.125 18.5 46.3125 17.4844 45.1953 16.9766L27.2188 9.35938C26.4062 8.95312 25.4922 8.95312 24.6797 9.35938ZM28.5391 6.3125L46.4141 13.9297C48.6484 14.9453 50.375 17.0781 50.375 19.7188C50.2734 29.875 46.1094 48.2578 28.6406 56.6875C26.9141 57.5 24.9844 57.5 23.2578 56.6875C5.78906 48.2578 1.625 29.875 1.625 19.7188C1.52344 17.0781 3.25 14.9453 5.48438 13.9297L23.4609 6.3125C25.0859 5.60156 26.9141 5.60156 28.5391 6.3125ZM36.8672 26.2188L23.8672 39.2188C23.2578 39.8281 22.1406 39.8281 21.5312 39.2188L15.0312 32.7188C14.4219 32.1094 14.4219 30.9922 15.0312 30.3828C15.6406 29.7734 16.7578 29.7734 17.3672 30.3828L22.75 35.7656L34.5312 23.8828C35.1406 23.2734 36.2578 23.2734 36.8672 23.8828C37.4766 24.4922 37.4766 25.6094 36.8672 26.2188Z" fill="#5F7482"/>
</svg>
