<svg width="53" height="62" viewBox="0 0 53 62" fill="none" xmlns="http://www.w3.org/2000/svg">
<path d="M6.80469 9.05469L3.75781 12.1016L11.1719 21.75H16.5547V16.4688L6.80469 9.05469ZM19.8047 22.7656L30.0625 33.125C33.1094 31.0938 37.2734 31.5 39.9141 34.1406L51.2891 45.5156C52.6094 46.7344 52.6094 48.8672 51.2891 50.0859L44.7891 56.5859C43.5703 57.9062 41.4375 57.9062 40.2188 56.5859L28.8438 45.2109C26.2031 42.5703 25.7969 38.4062 27.8281 35.3594L17.4688 25C17.3672 25 17.3672 25 17.2656 25H10.7656C10.0547 25 9.34375 24.6953 8.83594 24.0859L0.710938 13.5234C0 12.5078 0.101562 11.1875 1.01562 10.2734L5.07812 6.21094C5.89062 5.39844 7.3125 5.29688 8.22656 6.00781L18.7891 14.1328C19.3984 14.6406 19.8047 15.3516 19.8047 16.0625V22.5625C19.8047 22.6641 19.8047 22.6641 19.8047 22.7656ZM31.1797 36.375C29.3516 38.2031 29.3516 41.1484 31.1797 42.875L42.5547 54.25L49.0547 47.75L37.6797 36.375C35.8516 34.6484 32.9062 34.6484 31.1797 36.375ZM10.8672 48.5625C10.8672 49.4766 10.0547 50.1875 9.24219 50.1875C8.32812 50.1875 7.61719 49.4766 7.61719 48.5625C7.61719 47.75 8.32812 46.9375 9.24219 46.9375C10.0547 46.9375 10.8672 47.75 10.8672 48.5625ZM2.64062 43.7891L17.1641 29.2656L19.5 31.6016L4.97656 46.125C4.0625 47.0391 3.55469 48.2578 3.55469 49.4766C3.55469 52.1172 5.6875 54.25 8.32812 54.25C9.54688 54.25 10.7656 53.7422 11.6797 52.8281L23.3594 41.1484C23.5625 42.3672 23.8672 43.5859 24.4766 44.7031L14.0156 55.1641C12.4922 56.6875 10.4609 57.5 8.32812 57.5C3.85938 57.5 0.304688 53.9453 0.304688 49.4766C0.304688 47.3438 1.11719 45.3125 2.64062 43.7891ZM48.9531 21.75C48.9531 20.7344 48.8516 19.7188 48.5469 18.8047L43.6719 23.6797C42.7578 24.5938 41.5391 25.1016 40.2188 25.1016H37.6797C34.9375 25.1016 32.7031 22.8672 32.7031 20.125V17.5859C32.7031 16.2656 33.2109 15.0469 34.125 14.1328L39 9.25781C38.0859 8.95312 37.0703 8.85156 36.0547 8.85156C31.3828 8.85156 27.3203 11.2891 25.0859 14.9453L22.4453 12.9141C25.2891 8.44531 30.3672 5.5 36.0547 5.5C38.4922 5.5 40.9297 6.10938 43.0625 7.125C43.9766 7.63281 44.0781 8.85156 43.3672 9.5625L36.4609 16.4688C36.1562 16.7734 36.0547 17.1797 36.0547 17.5859V20.125C36.0547 21.0391 36.7656 21.75 37.6797 21.75H40.2188C40.625 21.75 41.0312 21.6484 41.3359 21.3438L48.2422 14.4375C48.9531 13.7266 50.2734 13.8281 50.6797 14.7422C51.6953 16.875 52.3047 19.3125 52.3047 21.75C52.3047 27.2344 49.5625 32.1094 45.3984 35.0547L43.0625 32.6172C46.6172 30.3828 48.9531 26.3203 48.9531 21.75Z" fill="#5F7482"/>
</svg>
