<svg width="65" height="62" viewBox="0 0 65 62" fill="none" xmlns="http://www.w3.org/2000/svg">
<path d="M9.75 13.625C9.75 15.4531 10.6641 16.9766 12.1875 17.8906C13.6094 18.8047 15.5391 18.8047 17.0625 17.8906C18.4844 16.9766 19.5 15.4531 19.5 13.625C19.5 11.8984 18.4844 10.375 17.0625 9.46094C15.5391 8.54688 13.6094 8.54688 12.1875 9.46094C10.6641 10.375 9.75 11.8984 9.75 13.625ZM22.75 13.625C22.75 16.5703 21.125 19.2109 18.6875 20.7344C16.1484 22.1562 13 22.1562 10.5625 20.7344C8.02344 19.2109 6.5 16.5703 6.5 13.625C6.5 10.7812 8.02344 8.14062 10.5625 6.61719C13 5.19531 16.1484 5.19531 18.6875 6.61719C21.125 8.14062 22.75 10.7812 22.75 13.625ZM32.5 21.75C30.1641 21.75 28.0312 23.0703 26.8125 25C25.6953 27.0312 25.6953 29.5703 26.8125 31.5C28.0312 33.5312 30.1641 34.75 32.5 34.75C34.7344 34.75 36.8672 33.5312 38.0859 31.5C39.2031 29.5703 39.2031 27.0312 38.0859 25C36.8672 23.0703 34.7344 21.75 32.5 21.75ZM32.5 38C28.9453 38 25.7969 36.1719 23.9688 33.125C22.2422 30.1797 22.2422 26.4219 23.9688 23.375C25.7969 20.4297 28.9453 18.5 32.5 18.5C35.9531 18.5 39.1016 20.4297 40.9297 23.375C42.6562 26.4219 42.6562 30.1797 40.9297 33.125C39.1016 36.1719 35.9531 38 32.5 38ZM26.5078 44.5C21.0234 44.5 16.4531 48.8672 16.25 54.25H48.6484C48.4453 48.8672 43.875 44.5 38.3906 44.5H26.5078ZM26.5078 41.25H38.3906C45.9062 41.25 52 47.3438 52 54.8594C52 56.3828 50.7812 57.5 49.2578 57.5H15.6406C14.1172 57.5 13 56.2812 13 54.8594C13 47.3438 18.9922 41.25 26.5078 41.25ZM52 8.75C50.1719 8.75 48.6484 9.76562 47.7344 11.1875C46.8203 12.7109 46.8203 14.6406 47.7344 16.0625C48.6484 17.5859 50.1719 18.5 52 18.5C53.7266 18.5 55.25 17.5859 56.1641 16.0625C57.0781 14.6406 57.0781 12.7109 56.1641 11.1875C55.25 9.76562 53.7266 8.75 52 8.75ZM52 21.75C49.0547 21.75 46.4141 20.2266 44.8906 17.6875C43.4688 15.25 43.4688 12.1016 44.8906 9.5625C46.4141 7.125 49.0547 5.5 52 5.5C54.8438 5.5 57.4844 7.125 59.0078 9.5625C60.4297 12.1016 60.4297 15.25 59.0078 17.6875C57.4844 20.2266 54.8438 21.75 52 21.75ZM53.625 28.25H45.5C45.5 27.1328 45.2969 26.1172 45.0938 25H53.625C59.8203 25 65 30.1797 65 36.375C65 37.2891 64.1875 38 63.375 38C62.4609 38 61.75 37.2891 61.75 36.375C61.75 31.9062 58.0938 28.25 53.625 28.25ZM19.5 28.25H11.375C6.80469 28.25 3.25 31.9062 3.25 36.375C3.25 37.2891 2.4375 38 1.625 38C0.710938 38 0 37.2891 0 36.375C0 30.1797 5.07812 25 11.375 25H19.9062C19.6016 26.1172 19.5 27.1328 19.5 28.25Z" fill="#5F7482"/>
</svg>
